<?xml version="1.0" encoding="UTF-8"?>
<svg id="Layer_1" xmlns="http://www.w3.org/2000/svg" xmlns:xlink="http://www.w3.org/1999/xlink" version="1.1" viewBox="0 0 357.2 725.6">
  <!-- Generator: Adobe Illustrator 30.3.0, SVG Export Plug-In . SVG Version: 2.1.3 Build 182)  -->
  <defs>
    <style>
      .st0 {
        fill: #eba82d;
      }

      .st1 {
        fill: #ac9bcc;
      }

      .st2 {
        fill: #fdfe33;
      }

      .st3 {
        fill: url(#linear-gradient);
      }

      .st4 {
        opacity: .4;
      }

      .st5 {
        fill: #d4613c;
      }

      .st6 {
        fill: #bff0fc;
      }

      .st7 {
        opacity: 0;
      }

      .st8 {
        fill: #b1c72f;
      }
    </style>
    <linearGradient id="linear-gradient" x1="-844.1" y1="689.2" x2="-3.1" y2="689.2" gradientTransform="translate(0 -268)" gradientUnits="userSpaceOnUse">
      <stop offset="0" stop-color="#000" stop-opacity="0"/>
      <stop offset="1" stop-color="#000" stop-opacity=".5"/>
    </linearGradient>
  </defs>
  <g class="st7">
    <rect x="-700.1" y="-11.3" width="1512" height="389.3"/>
    <rect x="-700.1" y="378" width="1512" height="389.3"/>
  </g>
  <g class="st4">
    <path class="st5" d="M140.6,535.3l-29.2-2.9-10.1-12.5-8.8-9h0l-7.7-7.8-6.7-6.8-5.9-6-5.3-5.4-56.6-57.3,1.7-3.2,65.4,54.6,7,5.9,8.1,6.8,9.4,7.8,11.1,9.2h0l13.2,11h0l14.5,12.1v3.5h-.1Z"/>
    <path class="st0" d="M140.7,531.8L12,424.5l1.7-3.2,121.6,82.3,5.4,28.3h0Z"/>
    <path class="st2" d="M135.3,503.5L13.7,421.2l1.7-3.2,115.5,61.9,4.4,23.6h0Z"/>
    <path class="st8" d="M130.9,479.9l-115.5-61.9,1.7-3.2,110,45.1,3.8,19.9h0Z"/>
    <path class="st6" d="M127.1,460l-110-45.1,1.7-3.2,105.1,31.2,3.2,17.1Z"/>
    <path class="st1" d="M123.8,442.9l-105.1-31.2,1.7-3.2,100.6,19.6,2.8,14.8h0Z"/>
  </g>
  <path class="st5" d="M659.3,535.2H116.9l-10.3-16.5,22.6-4.6h0l11.1-2.4,552.1-115-33.1,138.6h0Z"/>
  <path class="st0" d="M739.2,390.9l-598.9,120.8-11.1,2.4h0l-22.6,4.6-8.9-14.3,18.5-7.6h0l20.6-8.4,578.7-237.7,23.8,139.9h0v.2Z"/>
  <path class="st2" d="M721.1,250.9L136.8,488.6l-20.6,8.4h0l-18.5,7.6h0l-7.7-12.3,15.3-9.4,18.6-11.4,9.4-5.8L679.3,130.1l41.9,121.1h0v-.2Z"/>
  <path class="st8" d="M788.2,63.1L133.2,465.4l-9.4,5.8-18.6,11.4-15.3,9.4-6.8-10.8,12.7-10.8,15.1-12.8,18.1-15.3.7-.6L739.2-77l49,139.9h0Z"/>
  <path class="st6" d="M700.4-42.9L129.7,442l-.7.6-18.1,15.3-15.1,12.8-12.7,10.8-5.9-9.6,10.7-11.7,12.4-13.4,14.3-15.5,11.5-12.5L662.3-167.5l38,124.7h0Z"/>
  <path class="st1" d="M657.4-159.6L126,418.6l-11.5,12.5-14.3,15.5-12.4,13.4-10.7,11.7-5.4-8.6,9.1-12.2,10.2-13.8,11.6-15.6,13.2-17.7,6.6-8.8L635.5-257.5l21.9,97.9h0Z"/>
  <path class="st3" d="M-3.1,408.7h-841v25H-3.1v-25Z"/>
  <path d="M56.7,296.7h-30.8c-7.2,0-13.7,4.5-16.2,11.3l-8.6,23.5c-4.1,11.2,4.2,23.1,16.2,23.1h30.8c7.2,0,13.7-4.5,16.2-11.3l8.6-23.5c4.1-11.2-4.2-23.1-16.2-23.1h0Z"/>
  <path d="M150.7,561.5H24.7c-7.2,0-13.7,4.5-16.2,11.3l-11.1,30.6c-4.1,11.2,4.2,23.1,16.2,23.1h126c7.2,0,13.7-4.5,16.2-11.3l11.1-30.6c4.1-11.2-4.2-23.1-16.2-23.1Z"/>
  <path d="M26.1,380.7H-4.8c-7.2,0-13.7,4.5-16.2,11.3l-77.2,211.4c-4.1,11.2,4.2,23.1,16.2,23.1h31.1c7.2,0,13.7-4.5,16.2-11.3l76.9-211.4c4.1-11.2-4.2-23.1-16.2-23.1h.1Z"/>
  <path d="M87.1,356.8l-56.6,155.6c-4.1,11.2,4.2,23.1,16.2,23.1h113.4c12,0,20.3-11.9,16.2-23.1l-56.8-155.6c-5.5-15.1-26.9-15.1-32.4,0h0Z"/>
</svg>