<svg width="1512" height="638" viewBox="0 0 1512 638" fill="none" xmlns="http://www.w3.org/2000/svg">
<g opacity="0.4">
<path d="M840.722 546.597L811.52 543.687L801.449 531.173L792.608 522.213L792.6 522.212L784.92 514.43L778.187 507.617L772.238 501.583L766.937 496.215L710.347 438.89L712.045 435.723L777.485 490.306L784.521 496.175L792.617 502.931L802.012 510.764L813.063 519.984L813.071 519.984L826.236 530.966L826.252 530.968L840.752 543.072L840.722 546.597Z" fill="#D4613C"/>
<path d="M840.752 543.072L712.044 435.723L713.745 432.533L835.393 514.814L840.752 543.072Z" fill="#EBA82D"/>
<path d="M835.393 514.814L713.745 432.533L715.462 429.344L830.95 491.245L835.393 514.814Z" fill="#FDFE33"/>
<path d="M830.95 491.245L715.461 429.344L717.16 426.177L827.165 471.311L830.95 491.245Z" fill="#B1C72F"/>
<path d="M827.165 471.311L717.16 426.177L718.861 422.987L823.935 454.206L827.165 471.311Z" fill="#BFF0FC"/>
<path d="M823.934 454.206L718.86 422.987L720.574 419.822L821.135 439.394L823.934 454.206Z" fill="#AC9BCC"/>
</g>
<path d="M1551.56 546.5H867.535H831.779L818.059 535.106L848.081 531.862H848.108L862.864 530.272L1595.56 451L1551.56 546.5Z" fill="#D4613C"/>
<path d="M1657.56 447L862.865 530.272L848.109 531.862H848.081L818.06 535.106L806.266 525.319L830.79 520.14H830.799L858.167 514.352L1626.06 350.5L1657.56 447Z" fill="#EBA82D"/>
<path d="M1633.56 350.5L858.167 514.352L830.799 520.14H830.79L806.265 525.319H806.247L795.998 516.805L816.278 510.3L840.948 502.376L853.469 498.351L1578.06 267L1633.56 350.5Z" fill="#FDFE33"/>
<path d="M1722.56 221L853.469 498.351L840.948 502.376L816.278 510.3L795.997 516.806L787.011 509.364L803.939 501.94L823.911 493.172L847.863 482.668L848.744 482.277L1657.56 124.5L1722.56 221Z" fill="#B1C72F"/>
<path d="M1606.06 148L848.744 482.277L847.863 482.668L823.911 493.172L803.939 501.94L787.011 509.364L779.069 502.767L793.308 494.725L809.682 485.475L828.709 474.744L843.974 466.121L1555.56 62L1606.06 148Z" fill="#BFF0FC"/>
<path d="M1549.06 67.5L843.974 466.121L828.709 474.744L809.681 485.475L793.308 494.725L779.069 502.767L772 496.897L784.076 488.465L797.624 478.97L812.989 468.22L830.453 455.99L839.194 449.884L1520.06 0L1549.06 67.5Z" fill="#AC9BCC"/>
<path d="M697 420L0 420L4.37116e-06 445L697 445L697 420Z" fill="url(#paint0_linear_2193_272)"/>
<path d="M756.771 308.005H726C718.77 308.005 712.308 312.523 709.825 319.32L701.236 342.838C697.135 354.07 705.451 365.969 717.411 365.969H748.212C755.449 365.969 761.919 361.443 764.395 354.639L772.953 331.121C777.039 319.889 768.723 308.012 756.771 308.012V308.005Z" fill="black"/>
<path d="M850.761 572.768H724.77C717.533 572.768 711.063 577.294 708.587 584.098L697.439 614.724C693.354 625.956 701.669 637.833 713.622 637.833H839.613C846.85 637.833 853.32 633.307 855.796 626.502L866.944 595.876C871.029 584.645 862.714 572.768 850.761 572.768Z" fill="black"/>
<path d="M726.198 392.001H695.321C688.092 392.001 681.629 396.52 679.146 403.316L601.938 614.709C597.837 625.94 606.153 637.84 618.113 637.84H649.256C656.493 637.84 662.963 633.314 665.439 626.51L742.381 415.117C746.466 403.886 738.151 392.009 726.198 392.009V392.001Z" fill="black"/>
<path d="M787.216 368.058L730.595 523.62C726.509 534.851 734.825 546.728 746.778 546.728H860.216C872.177 546.728 880.492 534.836 876.391 523.597L819.573 368.035C814.06 352.946 792.714 352.953 787.216 368.05V368.058Z" fill="black"/>
<defs>
<linearGradient id="paint0_linear_2193_272" x1="2.18477e-06" y1="432.495" x2="697.018" y2="432.495" gradientUnits="userSpaceOnUse">
<stop stop-opacity="0"/>
<stop offset="1" stop-opacity="0.5"/>
</linearGradient>
</defs>
</svg>
