<?xml version="1.0" encoding="UTF-8"?>
<svg id="Layer_1" xmlns="http://www.w3.org/2000/svg" xmlns:xlink="http://www.w3.org/1999/xlink" version="1.1" viewBox="0 0 1800 778.7">
  <!-- Generator: Adobe Illustrator 30.3.0, SVG Export Plug-In . SVG Version: 2.1.3 Build 182)  -->
  <defs>
    <style>
      .st0 {
        fill: #eba82d;
      }

      .st1 {
        fill: #ac9bcc;
      }

      .st2 {
        fill: #fdfe33;
      }

      .st3 {
        fill: url(#linear-gradient);
      }

      .st4 {
        opacity: .4;
      }

      .st5 {
        fill: #d4613c;
      }

      .st6 {
        fill: #bff0fc;
      }

      .st7 {
        opacity: 0;
      }

      .st8 {
        fill: #b1c72f;
      }
    </style>
    <linearGradient id="linear-gradient" x1="0" y1="141.4" x2="841" y2="141.4" gradientTransform="translate(0 573.9) scale(1 -1)" gradientUnits="userSpaceOnUse">
      <stop offset="0" stop-color="#000" stop-opacity="0"/>
      <stop offset="1" stop-color="#000" stop-opacity=".5"/>
    </linearGradient>
  </defs>
  <g class="st7">
    <rect x="144" y="0" width="1512" height="389.3"/>
    <rect x="144" y="389.3" width="1512" height="389.3"/>
  </g>
  <g class="st4">
    <path class="st5" d="M984.7,546.6l-29.2-2.9-10.1-12.5-8.8-9h0l-7.7-7.8-6.7-6.8-5.9-6-5.3-5.4-56.6-57.3,1.7-3.2,65.4,54.6,7,5.9,8.1,6.8,9.4,7.8,11.1,9.2h0l13.2,11h0l14.5,12.1v3.5h-.1Z"/>
    <path class="st0" d="M984.8,543.1l-128.7-107.3,1.7-3.2,121.6,82.3,5.4,28.3h0Z"/>
    <path class="st2" d="M979.4,514.8l-121.6-82.3,1.7-3.2,115.5,61.9,4.4,23.6h0Z"/>
    <path class="st8" d="M975,491.2l-115.5-61.9,1.7-3.2,110,45.1,3.8,19.9h0Z"/>
    <path class="st6" d="M971.2,471.3l-110-45.1,1.7-3.2,105.1,31.2,3.2,17.1Z"/>
    <path class="st1" d="M967.9,454.2l-105.1-31.2,1.7-3.2,100.6,19.6,2.8,14.8h0Z"/>
  </g>
  <path class="st5" d="M1838.2,546.5h-851.5l-16.2-13.3,35.5-3.7h0l17.5-1.9,866.7-92.7-52,111.7Z"/>
  <path class="st0" d="M1963.6,430.2l-940.1,97.4-17.5,1.9h0l-35.5,3.7-14-11.5,29-6.1h0l32.4-6.8,908.4-191.6,37.3,112.8h0Z"/>
  <path class="st2" d="M1935.2,317.4l-917.2,191.6-32.4,6.8h0l-29,6.1h0l-12.1-9.9,24-7.6,29.2-9.2,14.8-4.7,857.1-270.5,65.7,97.6h-.1Z"/>
  <path class="st8" d="M2040.5,166L1012.4,490.3l-14.8,4.7-29.2,9.2-24,7.6-10.6-8.7,20-8.7,23.7-10.3,28.4-12.3,1.1-.5L1963.6,53.1l76.9,112.8Z"/>
  <path class="st6" d="M1902.7,80.6l-895.8,390.8-1.1.5-28.4,12.3-23.7,10.3-20,8.7-9.3-7.7,16.8-9.4,19.4-10.8,22.5-12.5,18.1-10.1L1842.9-19.9l59.7,100.5Z"/>
  <path class="st1" d="M1835.2-13.5l-834.1,466-18.1,10.1-22.5,12.5-19.4,10.8-16.8,9.4-8.4-6.9,14.3-9.8,16-11.1,18.2-12.6,20.7-14.3,10.3-7.1L1800.9-92.4l34.3,78.9Z"/>
  <path class="st3" d="M841,420H0v25h841v-25Z"/>
  <path d="M900.8,308h-30.8c-7.2,0-13.7,4.5-16.2,11.3l-8.6,23.5c-4.1,11.2,4.2,23.1,16.2,23.1h30.8c7.2,0,13.7-4.5,16.2-11.3l8.6-23.5c4.1-11.2-4.2-23.1-16.2-23.1h0Z"/>
  <path d="M994.8,572.8h-126c-7.2,0-13.7,4.5-16.2,11.3l-11.1,30.6c-4.1,11.2,4.2,23.1,16.2,23.1h126c7.2,0,13.7-4.5,16.2-11.3l11.1-30.6c4.1-11.2-4.2-23.1-16.2-23.1Z"/>
  <path d="M870.2,392h-30.9c-7.2,0-13.7,4.5-16.2,11.3l-77.2,211.4c-4.1,11.2,4.2,23.1,16.2,23.1h31.1c7.2,0,13.7-4.5,16.2-11.3l76.9-211.4c4.1-11.2-4.2-23.1-16.2-23.1h.1Z"/>
  <path d="M931.2,368.1l-56.6,155.6c-4.1,11.2,4.2,23.1,16.2,23.1h113.4c12,0,20.3-11.9,16.2-23.1l-56.8-155.6c-5.5-15.1-26.9-15.1-32.4,0h0Z"/>
</svg>