<svg width="55" height="55" viewBox="0 0 55 55" fill="none" xmlns="http://www.w3.org/2000/svg">
<path d="M27.5 55C42.6878 55 55 42.6878 55 27.5C55 12.3122 42.6878 0 27.5 0C12.3122 0 0 12.3122 0 27.5C0 42.6878 12.3122 55 27.5 55Z" fill="black"/>
<path d="M27.6154 10.4767H24.3918C23.6344 10.4767 22.9574 10.95 22.6973 11.6621L21.7975 14.1259C21.3679 15.3025 22.239 16.5492 23.492 16.5492H26.7188C27.477 16.5492 28.1548 16.075 28.4141 15.3622L29.3107 12.8984C29.7387 11.7217 28.8676 10.4775 27.6154 10.4775V10.4767Z" fill="white"/>
<path d="M37.4621 38.2138H24.263C23.5049 38.2138 22.827 38.6879 22.5677 39.4007L21.3998 42.6092C20.9718 43.7858 21.8429 45.0301 23.0951 45.0301H36.2942C37.0524 45.0301 37.7302 44.5559 37.9896 43.8431L39.1574 40.6346C39.5854 39.458 38.7143 38.2138 37.4621 38.2138Z" fill="white"/>
<path d="M24.4123 19.2763H21.1776C20.4202 19.2763 19.7432 19.7497 19.4831 20.4617L11.3947 42.6076C10.9651 43.7843 11.8362 45.0309 13.0892 45.0309H16.3518C17.1099 45.0309 17.7877 44.5567 18.0471 43.8439L26.1077 21.698C26.5357 20.5214 25.6646 19.2771 24.4123 19.2771V19.2763Z" fill="white"/>
<path d="M30.8046 16.7679L24.873 33.0649C24.445 34.2415 25.3161 35.4858 26.5683 35.4858H38.4523C39.7053 35.4858 40.5765 34.24 40.1469 33.0625L34.1945 16.7656C33.6169 15.1848 31.3806 15.1856 30.8046 16.7671V16.7679Z" fill="white"/>
</svg>
