<svg width="133" height="55" viewBox="0 0 133 55" fill="none" xmlns="http://www.w3.org/2000/svg">
<path d="M27.5 55C42.6878 55 55 42.6878 55 27.5C55 12.3122 42.6878 0 27.5 0C12.3122 0 0 12.3122 0 27.5C0 42.6878 12.3122 55 27.5 55Z" fill="black"/>
<path d="M27.6154 10.4767H24.3918C23.6344 10.4767 22.9574 10.95 22.6973 11.6621L21.7975 14.1259C21.3679 15.3025 22.239 16.5492 23.492 16.5492H26.7188C27.477 16.5492 28.1548 16.075 28.4141 15.3622L29.3107 12.8984C29.7387 11.7217 28.8676 10.4775 27.6154 10.4775V10.4767Z" fill="white"/>
<path d="M37.4621 38.2138H24.263C23.5049 38.2138 22.827 38.6879 22.5677 39.4007L21.3998 42.6092C20.9718 43.7858 21.8429 45.0301 23.0951 45.0301H36.2942C37.0524 45.0301 37.7302 44.5559 37.9896 43.8431L39.1574 40.6346C39.5854 39.458 38.7143 38.2138 37.4621 38.2138Z" fill="white"/>
<path d="M24.4123 19.2763H21.1776C20.4202 19.2763 19.7432 19.7497 19.4831 20.4617L11.3947 42.6076C10.9651 43.7843 11.8362 45.0309 13.0892 45.0309H16.3518C17.1099 45.0309 17.7877 44.5567 18.0471 43.8439L26.1077 21.698C26.5357 20.5214 25.6646 19.2771 24.4123 19.2771V19.2763Z" fill="white"/>
<path d="M30.8046 16.7679L24.873 33.0649C24.445 34.2415 25.3161 35.4858 26.5683 35.4858H38.4523C39.7053 35.4858 40.5765 34.24 40.1469 33.0625L34.1945 16.7656C33.6169 15.1848 31.3806 15.1856 30.8046 16.7671V16.7679Z" fill="white"/>
<path d="M74.464 23.5V18.844L70.176 11.98H73.136L76.528 18.076H75.136L78.512 11.98H81.216L76.928 18.844V23.5H74.464ZM83.5844 23.66C83.0084 23.66 82.5124 23.5373 82.0964 23.292C81.691 23.036 81.3817 22.7 81.1684 22.284C80.955 21.8573 80.8484 21.3827 80.8484 20.86V15.34H83.2484V20.396C83.2484 20.844 83.3604 21.18 83.5844 21.404C83.8084 21.628 84.123 21.74 84.5284 21.74C84.891 21.74 85.211 21.6547 85.4884 21.484C85.7657 21.3133 85.9844 21.0787 86.1444 20.78C86.315 20.4707 86.4004 20.1187 86.4004 19.724L86.6084 21.692C86.3417 22.2787 85.9524 22.7533 85.4404 23.116C84.9284 23.4787 84.3097 23.66 83.5844 23.66ZM86.4484 23.5V21.58H86.4004V15.34H88.8004V23.5H86.4484ZM92.2498 23.5L89.7538 15.34H92.2818L93.5298 21.036H93.4658L95.0338 15.34H97.2738L98.8578 21.036H98.7938L100.026 15.34H102.49L99.9938 23.5H97.6898L96.0898 17.82H96.1538L94.5538 23.5H92.2498ZM107.238 23.66C106.331 23.66 105.542 23.484 104.87 23.132C104.198 22.7693 103.675 22.268 103.302 21.628C102.939 20.988 102.758 20.252 102.758 19.42C102.758 18.5773 102.939 17.8413 103.302 17.212C103.675 16.572 104.192 16.076 104.854 15.724C105.515 15.3613 106.283 15.18 107.158 15.18C108 15.18 108.731 15.3507 109.35 15.692C109.968 16.0333 110.448 16.508 110.79 17.116C111.131 17.724 111.302 18.4387 111.302 19.26C111.302 19.4307 111.296 19.5907 111.286 19.74C111.275 19.8787 111.259 20.012 111.238 20.14H104.166V18.556H109.302L108.886 18.844C108.886 18.1827 108.726 17.6973 108.406 17.388C108.096 17.068 107.67 16.908 107.126 16.908C106.496 16.908 106.006 17.1213 105.654 17.548C105.312 17.9747 105.142 18.6147 105.142 19.468C105.142 20.3 105.312 20.9187 105.654 21.324C106.006 21.7293 106.528 21.932 107.222 21.932C107.606 21.932 107.936 21.868 108.214 21.74C108.491 21.612 108.699 21.404 108.838 21.116H111.094C110.827 21.9053 110.368 22.5293 109.718 22.988C109.078 23.436 108.251 23.66 107.238 23.66ZM112.523 23.5V15.34H114.923V23.5H112.523ZM112.443 14.252V11.66H115.003V14.252H112.443ZM119.722 23.5V11.98H122.186V23.5H119.722ZM120.874 23.5V21.612H127.722V23.5H120.874ZM128.898 23.5V15.34H131.298V23.5H128.898ZM128.818 14.252V11.66H131.378V14.252H128.818ZM72.304 43.5V41.58H75.216C76.048 41.58 76.752 41.4147 77.328 41.084C77.9147 40.7427 78.3573 40.2787 78.656 39.692C78.9653 39.1053 79.12 38.4333 79.12 37.676C79.12 36.9293 78.9707 36.2733 78.672 35.708C78.3733 35.1427 77.9307 34.7 77.344 34.38C76.768 34.06 76.0587 33.9 75.216 33.9H72.352V31.98H75.216C76.5067 31.98 77.632 32.2147 78.592 32.684C79.552 33.1427 80.2933 33.804 80.816 34.668C81.3493 35.5213 81.616 36.5347 81.616 37.708C81.616 38.8813 81.3493 39.9053 80.816 40.78C80.2827 41.644 79.536 42.316 78.576 42.796C77.6267 43.2653 76.512 43.5 75.232 43.5H72.304ZM70.8 43.5V31.98H73.264V43.5H70.8ZM86.8625 43.66C85.9558 43.66 85.1665 43.484 84.4945 43.132C83.8225 42.7693 83.2998 42.268 82.9265 41.628C82.5638 40.988 82.3825 40.252 82.3825 39.42C82.3825 38.5773 82.5638 37.8413 82.9265 37.212C83.2998 36.572 83.8172 36.076 84.4785 35.724C85.1398 35.3613 85.9078 35.18 86.7825 35.18C87.6252 35.18 88.3558 35.3507 88.9745 35.692C89.5932 36.0333 90.0732 36.508 90.4145 37.116C90.7558 37.724 90.9265 38.4387 90.9265 39.26C90.9265 39.4307 90.9212 39.5907 90.9105 39.74C90.8998 39.8787 90.8838 40.012 90.8625 40.14H83.7905V38.556H88.9265L88.5105 38.844C88.5105 38.1827 88.3505 37.6973 88.0305 37.388C87.7212 37.068 87.2945 36.908 86.7505 36.908C86.1212 36.908 85.6305 37.1213 85.2785 37.548C84.9372 37.9747 84.7665 38.6147 84.7665 39.468C84.7665 40.3 84.9372 40.9187 85.2785 41.324C85.6305 41.7293 86.1532 41.932 86.8465 41.932C87.2305 41.932 87.5612 41.868 87.8385 41.74C88.1158 41.612 88.3238 41.404 88.4625 41.116H90.7185C90.4518 41.9053 89.9932 42.5293 89.3425 42.988C88.7025 43.436 87.8758 43.66 86.8625 43.66ZM95.5841 43.66C94.3895 43.66 93.4401 43.42 92.7361 42.94C92.0321 42.46 91.6481 41.7987 91.5841 40.956H93.7281C93.7815 41.3187 93.9628 41.596 94.2721 41.788C94.5921 41.9693 95.0295 42.06 95.5841 42.06C96.0855 42.06 96.4481 41.9907 96.6721 41.852C96.9068 41.7027 97.0241 41.4947 97.0241 41.228C97.0241 41.0253 96.9548 40.8707 96.8161 40.764C96.6881 40.6467 96.4481 40.5507 96.0961 40.476L94.7841 40.204C93.8135 40.0013 93.0988 39.6973 92.6401 39.292C92.1815 38.876 91.9521 38.3427 91.9521 37.692C91.9521 36.9027 92.2561 36.2893 92.8641 35.852C93.4721 35.404 94.3201 35.18 95.4081 35.18C96.4855 35.18 97.3441 35.3987 97.9841 35.836C98.6241 36.2627 98.9761 36.86 99.0401 37.628H96.8961C96.8535 37.3507 96.7041 37.1427 96.4481 37.004C96.1921 36.8547 95.8295 36.78 95.3601 36.78C94.9335 36.78 94.6135 36.844 94.4001 36.972C94.1975 37.0893 94.0961 37.26 94.0961 37.484C94.0961 37.676 94.1815 37.8307 94.3521 37.948C94.5228 38.0547 94.8055 38.1507 95.2001 38.236L96.6721 38.54C97.4935 38.7107 98.1121 39.0307 98.5281 39.5C98.9548 39.9587 99.1681 40.5027 99.1681 41.132C99.1681 41.932 98.8535 42.556 98.2241 43.004C97.6055 43.4413 96.7255 43.66 95.5841 43.66ZM100.351 43.5V35.34H102.751V43.5H100.351ZM100.271 34.252V31.66H102.831V34.252H100.271ZM108.345 46.94C107.214 46.94 106.292 46.7 105.577 46.22C104.873 45.74 104.457 45.0893 104.329 44.268H106.601C106.686 44.4707 106.868 44.6253 107.145 44.732C107.433 44.8387 107.796 44.892 108.233 44.892C108.958 44.892 109.486 44.7533 109.817 44.476C110.148 44.1987 110.313 43.7667 110.313 43.18V41.404L110.441 41.436C110.334 42.0333 110.025 42.508 109.513 42.86C109.001 43.2013 108.366 43.372 107.609 43.372C106.884 43.372 106.249 43.2067 105.705 42.876C105.172 42.5347 104.756 42.06 104.457 41.452C104.158 40.844 104.009 40.1293 104.009 39.308C104.009 38.476 104.164 37.7507 104.473 37.132C104.782 36.5133 105.214 36.0333 105.769 35.692C106.334 35.3507 106.99 35.18 107.737 35.18C108.505 35.18 109.129 35.3613 109.609 35.724C110.1 36.0867 110.388 36.5827 110.473 37.212L110.361 37.228V35.34H112.713V43.148C112.713 44.3213 112.324 45.244 111.545 45.916C110.766 46.5987 109.7 46.94 108.345 46.94ZM108.441 41.532C109.006 41.532 109.465 41.34 109.817 40.956C110.169 40.5613 110.345 40.0013 110.345 39.276C110.345 38.5507 110.164 37.996 109.801 37.612C109.449 37.2173 108.985 37.02 108.409 37.02C107.854 37.02 107.396 37.2173 107.033 37.612C106.681 38.0067 106.505 38.5667 106.505 39.292C106.505 40.0173 106.681 40.572 107.033 40.956C107.396 41.34 107.865 41.532 108.441 41.532ZM114.632 43.5V35.34H116.984V37.26H117.032V43.5H114.632ZM120.312 43.5V38.444C120.312 37.996 120.195 37.66 119.96 37.436C119.736 37.212 119.405 37.1 118.968 37.1C118.595 37.1 118.259 37.1853 117.96 37.356C117.672 37.5267 117.443 37.7613 117.272 38.06C117.112 38.3587 117.032 38.7107 117.032 39.116L116.824 37.148C117.091 36.5507 117.48 36.076 117.992 35.724C118.515 35.3613 119.155 35.18 119.912 35.18C120.819 35.18 121.512 35.436 121.992 35.948C122.472 36.4493 122.712 37.1267 122.712 37.98V43.5H120.312Z" fill="black"/>
</svg>
